<svg id="svg" version="1.1" xmlns="http://www.w3.org/2000/svg" xmlns:xlink="http://www.w3.org/1999/xlink" width="400" height="400" viewBox="0, 0, 400,400"><g id="svgg"><path id="path0" d="M256.000 49.051 C 158.553 59.839,42.071 137.833,19.434 207.450 C 10.691 234.339,15.360 274.202,30.599 302.769 C 76.681 389.154,232.283 378.861,328.015 283.095 C 368.414 242.681,386.488 199.264,383.741 149.231 C 381.001 99.322,363.550 87.635,339.063 119.311 C 316.798 148.113,288.835 165.667,263.077 167.011 C 180.170 171.336,146.848 182.993,118.639 217.538 C 114.654 222.418,106.252 237.831,101.530 248.923 C 95.765 262.463,86.918 288.234,85.231 296.400 C 83.183 306.315,79.202 307.900,72.749 301.366 C 63.820 292.324,63.881 285.615,73.118 261.231 C 80.214 242.499,92.123 221.228,102.300 209.111 C 103.066 208.199,104.385 206.542,105.231 205.430 C 107.015 203.084,121.413 188.515,123.702 186.739 C 124.553 186.079,126.630 184.406,128.317 183.022 C 146.600 168.024,164.984 161.151,200.615 155.993 C 287.937 143.353,321.532 129.637,330.794 102.844 C 342.360 69.387,306.336 43.478,256.000 49.051 " stroke="none" fill="#000000" fill-rule="evenodd"></path></g></svg>