<svg xmlns="http://www.w3.org/2000/svg" version="1.1" xmlns:xlink="http://www.w3.org/1999/xlink" xmlns:svgjs="http://svgjs.com/svgjs" width="399.97192" height="339.47189"><svg xmlns:dc="http://purl.org/dc/elements/1.1/" xmlns:cc="http://creativecommons.org/ns#" xmlns:rdf="http://www.w3.org/1999/02/22-rdf-syntax-ns#" xmlns:svg="http://www.w3.org/2000/svg" xmlns="http://www.w3.org/2000/svg" viewBox="0 0 399.97193 339.47189" height="339.47189" width="399.97192" xml:space="preserve" id="SvgjsSvg1042" version="1.1"><metadata id="SvgjsMetadata1041"><rdf:rdf><cc:work rdf:about=""><dc:format>image/svg+xml</dc:format><dc:type rdf:resource="http://purl.org/dc/dcmitype/StillImage"></dc:type><dc:title></dc:title></cc:work></rdf:rdf></metadata><defs id="SvgjsDefs1040"></defs><g transform="matrix(1.3333333,0,0,-1.3333333,-133.36167,503.06921)" id="SvgjsG1039"><g transform="scale(0.1)" id="SvgjsG1038"><path id="SvgjsPath1037" style="fill:#672e23;fill-opacity:1;fill-rule:nonzero;stroke:none" d="m 3999.46,2873.27 c -0.85,-22.43 -2.25,-44.6 -4.21,-66.76 C 3970,2549.57 3846.3,2297.67 3588.51,2067.66 2645.73,1226.98 1728.76,1660.08 1575.88,1774.81 c 146.99,465.93 263.96,741.38 616.27,890.05 34.5,12.62 69.01,25.52 103.79,37.87 181.49,57.78 417.11,90.04 732.12,103.22 172.79,7.3 333.52,106.32 466.48,231.98 58.35,55.54 111.37,115.85 157.65,176.16 20.48,26.65 40.95,49.37 60.87,67.88 113.04,104.91 213.46,76.3 257.5,-118.93 21.88,-96.49 31.98,-193.55 28.9,-289.77"></path><path id="SvgjsPath1036" style="fill:#b39585;fill-opacity:1;fill-rule:nonzero;stroke:none" d="m 1576.35,1774.46 c -0.01,0.01 -0.01,0.01 -0.02,0.02 h -0.01 c 0.01,-0.01 0.01,-0.01 0.03,-0.02"></path><path id="SvgjsPath1035" style="fill:#422524;fill-opacity:1;fill-rule:nonzero;stroke:none" d="m 2363.46,1561.23 c -321.15,0.02 -576.25,95.44 -709.1,165.62 v 0 c -31.23,16.51 -55.75,31.63 -72.75,43.77 -0.03,0.02 -0.05,0.03 -0.07,0.05 -0.05,0.03 -0.09,0.06 -0.14,0.1 -0.07,0.05 -0.14,0.1 -0.2,0.15 -0.01,0 -0.01,0 -0.02,0.01 -1.51,1.08 -2.95,2.13 -4.33,3.16 -0.16,0.12 -0.34,0.25 -0.5,0.37 -0.02,0.01 -0.02,0.01 -0.03,0.02 -0.15,0.11 -0.29,0.22 -0.44,0.33 146.99,465.93 263.96,741.38 616.27,890.05 v 0 c 34.5,12.62 69.01,25.52 103.79,37.87 v 0 0 c 0.24,0.07 0.47,0.15 0.71,0.22 0.1,0.03 0.19,0.06 0.29,0.09 0.21,0.07 0.4,0.13 0.61,0.2 0.13,0.04 0.27,0.08 0.4,0.12 0.08,0.03 0.18,0.06 0.27,0.09 0.22,0.07 0.41,0.13 0.63,0.2 0.12,0.04 0.24,0.07 0.36,0.11 0.12,0.04 0.24,0.08 0.36,0.12 0.17,0.05 0.34,0.1 0.5,0.15 0.13,0.04 0.26,0.08 0.39,0.13 0.2,0.06 0.4,0.12 0.6,0.18 0.03,0.02 0.08,0.03 0.11,0.04 72.4,22.72 153.52,41.38 244.59,56.49 -202.03,-219.68 -184.21,-574.33 -38.29,-822.47 90.21,-153.4 222.33,-252.96 370.83,-293.71 -183.2,-60.43 -356.97,-83.47 -514.84,-83.46"></path><path id="SvgjsPath1034" style="fill:#672e23;fill-opacity:1;fill-rule:nonzero;stroke:none" d="m 2295.94,2702.73 c -34.78,-12.35 -69.29,-25.25 -103.79,-37.87 32.54,13.74 67.04,26.36 103.79,37.87"></path><path id="SvgjsPath1033" style="fill:#672e23;fill-opacity:1;fill-rule:nonzero;stroke:none" d="m 3588.51,3443.26 c 0,-31.13 -3.92,-60.59 -11.78,-88.08 -0.56,-2.24 -1.4,-4.48 -1.68,-6.44 -97.06,-325.67 -704.91,-395.8 -1184.02,-465.93 -278.54,-40.67 -502.67,-193.83 -670.41,-401.4 -146.98,-181.21 -250.77,-404.49 -310.24,-630.3 0,0 -216.55,-92.01 -382.05,229.45 -10.1,31.7 -17.39,63.4 -21.88,95.38 -148.946,1020.76 2418.81,2177.85 2582.06,1267.32"></path><path id="SvgjsPath1032" style="fill:#d3c3b7;fill-opacity:1;fill-rule:nonzero;stroke:none" d="m 1006.34,2176.68 c -0.01,0.07 -0.01,0.13 -0.02,0.2 0,-0.07 0.01,-0.14 0.02,-0.2 m -0.13,0.93 -0.01,0.06 0.01,-0.06 m -0.1,0.73 c -0.01,0.07 -0.03,0.16 -0.04,0.23 0.01,-0.06 0.03,-0.17 0.04,-0.23 m -0.14,0.93 c 0,0.04 -0.01,0.09 -0.01,0.12 l 0.01,-0.12 m -0.1,0.73 c -0.01,0.07 -0.02,0.2 -0.03,0.27 0,-0.07 0.02,-0.2 0.03,-0.27 m -0.12,0.92 c -0.01,0.07 -0.02,0.13 -0.03,0.21 0.01,-0.07 0.02,-0.15 0.03,-0.21 m -0.11,0.75 c -0.01,0.07 -0.02,0.21 -0.03,0.28 0,-0.06 0.02,-0.22 0.03,-0.28 m -0.12,0.9 c -0.01,0.11 -0.02,0.17 -0.03,0.28 0.01,-0.13 0.01,-0.15 0.03,-0.28 m -0.1,0.76 c -0.01,0.11 -0.03,0.21 -0.04,0.32 0.01,-0.06 0.03,-0.26 0.04,-0.32 m -0.11,0.86 c -0.02,0.14 -0.04,0.25 -0.06,0.39 0.02,-0.12 0.04,-0.27 0.06,-0.39 m -0.11,0.79 c -0.01,0.11 -0.03,0.26 -0.04,0.36 0.01,-0.12 0.03,-0.23 0.04,-0.36 m -0.11,0.84 c -0.01,0.14 -0.04,0.32 -0.05,0.46 0.01,-0.13 0.04,-0.34 0.05,-0.46 m -0.1,0.84 c -0.02,0.11 -0.04,0.26 -0.05,0.37 0.02,-0.13 0.03,-0.24 0.05,-0.37 m -0.1,0.81 c -0.03,0.17 -0.05,0.35 -0.07,0.52 0.01,-0.12 0.05,-0.4 0.07,-0.52 m -0.11,0.85 c -0.02,0.14 -0.03,0.25 -0.05,0.39 0.01,-0.12 0.03,-0.27 0.05,-0.39 m -0.1,0.77 c -0.02,0.21 -0.04,0.38 -0.07,0.59 0.03,-0.25 0.04,-0.34 0.07,-0.59 m -0.11,0.9 c -0.01,0.14 -0.03,0.28 -0.05,0.42 0.02,-0.13 0.04,-0.29 0.05,-0.42 m -0.08,0.65 c -0.03,0.25 -0.06,0.53 -0.09,0.78 0.03,-0.25 0.06,-0.53 0.09,-0.78 m -0.11,0.99 c -0.07,0.53 -0.12,0.98 -0.18,1.5 0.06,-0.5 0.12,-1 0.18,-1.5 m -0.2,1.65 c -0.06,0.53 -0.12,1.03 -0.18,1.55 0.06,-0.5 0.12,-1.05 0.18,-1.55 m -0.19,1.66 c -0.06,0.53 -0.12,1.08 -0.18,1.6 0.06,-0.5 0.13,-1.1 0.18,-1.6 m -0.18,1.65 c -0.06,0.56 -0.12,1.09 -0.18,1.65 0.06,-0.56 0.12,-1.09 0.18,-1.65 m -0.18,1.66 c -40.134,374.08 278.34,764.28 704.63,1062.67 -426.35,-298.41 -744.783,-688.55 -704.63,-1062.67 m 705.1,1063 c 0.12,0.08 0.18,0.12 0.3,0.21 -0.07,-0.05 -0.23,-0.16 -0.3,-0.21 m 1.11,0.77 c 0.04,0.03 0.12,0.08 0.16,0.11 -0.07,-0.05 -0.09,-0.06 -0.16,-0.11"></path><path id="SvgjsPath1031" style="fill:#512825;fill-opacity:1;fill-rule:nonzero;stroke:none" d="m 1337.2,1838.91 c -0.54,0 -1.08,0.01 -1.62,0.01 -77.84,0.52 -202.73,38.63 -307.25,241.64 v 0 c -10.1,31.7 -17.39,63.4 -21.88,95.38 v 0 c -0.03,0.24 -0.07,0.5 -0.11,0.74 -0.01,0.06 -0.02,0.13 -0.02,0.2 -0.04,0.24 -0.08,0.48 -0.11,0.73 l -0.01,0.06 c -0.03,0.24 -0.06,0.43 -0.09,0.67 -0.01,0.06 -0.03,0.17 -0.04,0.23 -0.03,0.24 -0.06,0.46 -0.1,0.7 l -0.01,0.12 c -0.03,0.21 -0.06,0.4 -0.09,0.61 -0.01,0.07 -0.03,0.2 -0.03,0.27 -0.03,0.21 -0.07,0.44 -0.09,0.65 -0.01,0.06 -0.02,0.14 -0.03,0.21 -0.03,0.21 -0.05,0.33 -0.08,0.54 -0.01,0.06 -0.03,0.22 -0.03,0.28 -0.03,0.21 -0.06,0.41 -0.09,0.62 -0.02,0.13 -0.02,0.15 -0.03,0.28 -0.02,0.14 -0.05,0.34 -0.07,0.48 -0.01,0.06 -0.03,0.26 -0.04,0.32 -0.03,0.17 -0.05,0.36 -0.07,0.54 -0.02,0.12 -0.04,0.27 -0.06,0.39 -0.01,0.15 -0.03,0.26 -0.05,0.4 -0.01,0.13 -0.03,0.24 -0.04,0.36 -0.03,0.18 -0.04,0.3 -0.07,0.48 -0.01,0.12 -0.04,0.33 -0.05,0.46 -0.02,0.14 -0.04,0.24 -0.05,0.38 -0.02,0.13 -0.03,0.24 -0.05,0.37 -0.02,0.17 -0.03,0.26 -0.05,0.44 -0.02,0.12 -0.06,0.4 -0.07,0.52 -0.01,0.11 -0.03,0.22 -0.04,0.33 -0.02,0.12 -0.04,0.27 -0.05,0.39 -0.01,0.11 -0.03,0.28 -0.05,0.38 -0.03,0.25 -0.04,0.34 -0.07,0.59 -0.01,0.11 -0.02,0.21 -0.04,0.31 -0.01,0.13 -0.03,0.29 -0.05,0.42 -0.01,0.07 -0.02,0.16 -0.03,0.23 -0.03,0.25 -0.06,0.53 -0.09,0.78 -0.01,0.07 -0.02,0.14 -0.02,0.21 -0.06,0.5 -0.12,1 -0.18,1.5 0,0.04 -0.01,0.12 -0.02,0.15 -0.06,0.5 -0.12,1.05 -0.18,1.55 0,0.04 0,0.08 -0.01,0.11 -0.05,0.5 -0.12,1.1 -0.18,1.6 v 0.05 c -0.06,0.56 -0.12,1.09 -0.18,1.65 v 0.01 c -40.153,374.12 278.28,764.26 704.63,1062.67 0.16,0.11 0.31,0.21 0.47,0.33 0.07,0.05 0.23,0.16 0.3,0.21 0.28,0.19 0.53,0.37 0.81,0.56 0.07,0.05 0.09,0.06 0.16,0.11 219.86,153.65 468.3,282.9 710.95,372.95 38.09,0.25 77.14,9.14 113.91,26.17 76.19,35.28 184.07,59.33 285.18,59.33 58.57,0 114.87,-8.07 161.43,-26.69 70.37,-28.15 137.91,-92.85 182.78,-152.39 5.45,-7.23 11.93,-21.59 16.19,-23.64 -9.29,-25.63 -31.03,-51.96 -44.46,-69.49 -121.76,-158.89 -313.78,-268.3 -495.87,-341.03 -171.74,-68.59 -356.83,-105.2 -453.23,-277.27 -183.42,-69.37 -337.35,-191.06 -461.07,-342.28 l -0.02,-0.02 c -0.01,-0.02 0,-0.01 -0.01,-0.02 -0.01,-0.02 -0.05,-0.05 -0.06,-0.07 -0.11,-0.14 -0.25,-0.31 -0.36,-0.45 -0.02,-0.02 -0.05,-0.05 -0.06,-0.07 -0.14,-0.17 -0.26,-0.32 -0.4,-0.48 -0.05,-0.06 -0.08,-0.1 -0.13,-0.16 -0.11,-0.14 -0.21,-0.27 -0.33,-0.4 -0.04,-0.05 -0.06,-0.09 -0.1,-0.13 -0.05,-0.06 -0.09,-0.11 -0.13,-0.17 -0.08,-0.09 -0.16,-0.19 -0.23,-0.28 -0.07,-0.08 -0.15,-0.18 -0.22,-0.26 -0.07,-0.09 -0.13,-0.17 -0.2,-0.26 -0.02,-0.01 -0.04,-0.03 -0.05,-0.05 l -0.01,-0.01 c -0.09,-0.11 -0.17,-0.21 -0.26,-0.32 -0.06,-0.07 -0.14,-0.18 -0.2,-0.25 -0.06,-0.07 -0.11,-0.14 -0.17,-0.21 -0.05,-0.06 -0.09,-0.11 -0.14,-0.17 -0.06,-0.08 -0.12,-0.15 -0.18,-0.22 -0.1,-0.12 -0.19,-0.24 -0.29,-0.36 -0.05,-0.06 -0.12,-0.15 -0.18,-0.22 l -0.01,-0.01 v -0.01 c -0.1,-0.12 -0.2,-0.25 -0.3,-0.37 -0.06,-0.07 -0.13,-0.15 -0.19,-0.22 -0.06,-0.08 -0.1,-0.14 -0.16,-0.21 -0.05,-0.05 -0.1,-0.12 -0.14,-0.17 -0.05,-0.07 -0.13,-0.16 -0.18,-0.22 -0.16,-0.2 -0.32,-0.4 -0.48,-0.59 v 0 c -146.98,-181.21 -250.77,-404.49 -310.24,-630.3 0,0 -28.7,-12.19 -73.17,-12.2 h -0.01"></path><path id="SvgjsPath1030" style="fill:#4c2526;fill-opacity:1;fill-rule:nonzero;stroke:none" d="m 3995.25,2806.51 c 4.77,-807.01 -1018.24,-1579.53 -1884.44,-1579.53 -865.93,0 -1063.41,509.97 -1104.36,948.96 0,0 0.067,-0.6353 0,0 4.49,-31.98 11.78,-63.68 21.88,-95.38 165.5,-321.46 382.05,-229.45 382.05,-229.45 0,-130.44 165.5,-265.92 165.5,-76.3 152.88,-114.73 1069.85,-547.83 2012.63,292.85 257.79,230.01 381.49,481.91 406.74,738.85"></path><path id="SvgjsPath1029" style="fill:#aa8b7a;fill-opacity:1;fill-rule:nonzero;stroke:none" d="m 2111.66,1226.98 c 0.1,0 0.12,0 0.22,0 -0.08,0 -0.14,0 -0.22,0 m 1.06,0 c 0.05,0 0.05,0 0.1,0 -0.02,0 -0.08,0 -0.1,0 m 0.88,0 c 0.06,0 0.15,0 0.2,0 -0.06,0 -0.14,0 -0.2,0 m 1.06,0.01 c 0.06,0 0.01,0 0.07,0 -0.02,0 -0.05,0 -0.07,0 m 0.92,0 c 0.06,0 0.06,0 0.11,0 -0.04,0 -0.07,0 -0.11,0 m 1.03,0 h 0.02 -0.02 m 0.97,0.01 h 0.01 -0.01"></path><path id="SvgjsPath1028" style="fill:#3c2323;fill-opacity:1;fill-rule:nonzero;stroke:none" d="m 1654.36,1726.84 c -31.88,16.85 -56.75,32.26 -73.79,44.52 0.2,-0.14 0.41,-0.29 0.61,-0.43 l 0.02,-0.01 c 0.06,-0.05 0.13,-0.1 0.2,-0.15 0.05,-0.04 0.09,-0.07 0.14,-0.1 0.02,-0.02 0.04,-0.03 0.07,-0.05 17,-12.15 41.49,-27.25 72.75,-43.77 0,0 0,0 0,-0.01"></path><path id="SvgjsPath1027" style="fill:#251c1c;fill-opacity:1;fill-rule:nonzero;stroke:none" d="m 1654.36,1726.85 c -31.26,16.52 -55.75,31.62 -72.75,43.77 17,-12.14 41.52,-27.26 72.75,-43.77 v 0 m -72.82,43.82 c -0.05,0.03 -0.09,0.06 -0.14,0.1 0.05,-0.04 0.09,-0.07 0.14,-0.1 m -0.34,0.25 -0.02,0.01 c 0.01,-0.01 0.01,-0.01 0.02,-0.01"></path><path id="SvgjsPath1026" style="fill:#3c2323;fill-opacity:1;fill-rule:nonzero;stroke:none" d="m 1580.42,1771.47 c -0.02,0.02 -0.03,0.03 -0.06,0.04 0.02,-0.01 0.04,-0.02 0.06,-0.04"></path><path id="SvgjsPath1025" style="fill:#8e6751;fill-opacity:1;fill-rule:nonzero;stroke:none" d="m 1337.2,1838.91 c -0.54,0.01 -1.08,0.01 -1.62,0.01 0.54,0 1.08,-0.01 1.62,-0.01 v 0"></path><path id="SvgjsPath1024" style="fill:#8e6751;fill-opacity:1;fill-rule:nonzero;stroke:none" d="m 1337.21,1838.91 c 44.21,0.01 72.83,12.06 73.17,12.2 -0.34,-0.14 -28.95,-12.19 -73.17,-12.2"></path><path id="SvgjsPath1023" style="fill:#2b1e1f;fill-opacity:1;fill-rule:nonzero;stroke:none" d="m 2110.81,1226.98 c -865.93,0 -1063.41,509.97 -1104.36,948.96 0,0 0.067,-0.4302 0,0 4.49,-31.98 11.78,-63.68 21.88,-95.38 104.53,-203.03 229.41,-241.13 307.25,-241.64 0.54,0 1.08,-0.01 1.62,-0.01 v 0 0 h 0.01 c 44.22,0.01 72.83,12.06 73.17,12.2 v 0 0 0 0 0 0 c 0,-83.84 68.38,-169.77 117.23,-170.1 h 0.29 v 0 0 h 0.02 c 27,0.01 47.96,26.31 47.96,93.8 v 0 c 1.43,-1.07 2.92,-2.17 4.48,-3.3 0.03,-0.01 0.04,-0.02 0.06,-0.04 0.05,-0.03 0.1,-0.07 0.15,-0.11 17.04,-12.26 41.91,-27.67 73.79,-44.52 -26.41,-84.79 -2.79,-179.18 102.82,-229.7 196.18,-93.84 404.34,-136.27 614.19,-136.27 247.83,0 498,59.19 733.49,162.75 C 2796.62,1340.94 2446.14,1228.53 2117.59,1227 h -0.01 c -0.32,0 -0.63,-0.01 -0.95,-0.01 h -0.02 -0.92 -0.11 -0.85 -0.07 c -0.3,0 -0.56,0 -0.86,-0.01 h -0.2 -0.78 -0.1 -0.84 -0.22 -0.85 v 0"></path><path id="SvgjsPath1022" style="fill:#3e2225;fill-opacity:1;fill-rule:nonzero;stroke:none" d="m 3713.06,3281.97 c -19.92,-18.51 -40.39,-41.23 -60.87,-67.88 -46.28,-60.31 -99.3,-120.62 -157.65,-176.16 -132.96,-125.66 -293.69,-224.68 -466.48,-231.98 -315.01,-13.18 -550.63,-45.44 -732.12,-103.22 -36.75,-11.51 -71.25,-24.13 -103.79,-37.87 -352.31,-148.67 -469.28,-424.12 -616.27,-890.05 0,-189.62 -165.5,-54.14 -165.5,76.3 59.47,225.81 163.26,449.09 310.24,630.3 167.74,207.57 391.87,360.73 670.41,401.4 479.11,70.13 1086.96,140.26 1184.02,465.93 -30.01,-105.19 36.19,-138.3 138.01,-66.77"></path><path id="SvgjsPath1021" style="fill:#1b1717;fill-opacity:1;fill-rule:nonzero;stroke:none" d="m 1527.9,1681.01 c -0.1,0 -0.19,0 -0.29,0 0.05,0 0.09,0 0.14,0 0.05,0 0.1,0 0.15,0 v 0 0 0"></path><path id="SvgjsPath1020" style="fill:#744534;fill-opacity:1;fill-rule:nonzero;stroke:none" d="m 1527.92,1681.01 c 27,0.02 47.96,26.33 47.96,93.8 0,-67.49 -20.96,-93.79 -47.96,-93.8"></path><path id="SvgjsPath1019" style="fill:#2b1e1e;fill-opacity:1;fill-rule:nonzero;stroke:none" d="m 1720.62,2481.41 c 0.16,0.19 0.32,0.39 0.48,0.59 -0.17,-0.21 -0.32,-0.39 -0.48,-0.59"></path><path id="SvgjsPath1018" style="fill:#3b2322;fill-opacity:1;fill-rule:nonzero;stroke:none" d="m 1721.3,2482.24 c 0.04,0.05 0.08,0.1 0.12,0.15 l 0.01,0.02 c -0.04,-0.05 -0.09,-0.12 -0.13,-0.17"></path><path id="SvgjsPath1017" style="fill:#2b1e1e;fill-opacity:1;fill-rule:nonzero;stroke:none" d="m 1721.42,2482.39 c 0.06,0.07 0.1,0.13 0.16,0.21 -0.05,-0.07 -0.1,-0.13 -0.15,-0.19 l -0.01,-0.02"></path><path id="SvgjsPath1016" style="fill:#2b1e1e;fill-opacity:1;fill-rule:nonzero;stroke:none" d="m 1721.77,2482.82 c 0.1,0.12 0.2,0.25 0.3,0.37 -0.11,-0.12 -0.2,-0.24 -0.3,-0.37"></path><path id="SvgjsPath1015" style="fill:#2b1e1e;fill-opacity:1;fill-rule:nonzero;stroke:none" d="m 1722.26,2483.43 c 0.1,0.12 0.19,0.24 0.29,0.36 -0.1,-0.13 -0.19,-0.23 -0.29,-0.36"></path><path id="SvgjsPath1014" style="fill:#3b2322;fill-opacity:1;fill-rule:nonzero;stroke:none" d="m 1722.73,2484.01 c 0.04,0.05 0.1,0.12 0.14,0.17 0.01,0.02 0.02,0.03 0.04,0.05 -0.05,-0.07 -0.13,-0.16 -0.18,-0.22"></path><path id="SvgjsPath1013" style="fill:#2b1e1e;fill-opacity:1;fill-rule:nonzero;stroke:none" d="m 1722.87,2484.18 c 0.06,0.07 0.11,0.14 0.17,0.21 -0.05,-0.06 -0.08,-0.1 -0.13,-0.16 -0.02,-0.02 -0.03,-0.03 -0.04,-0.05"></path><path id="SvgjsPath1012" style="fill:#2b1e1e;fill-opacity:1;fill-rule:nonzero;stroke:none" d="m 1723.24,2484.64 c 0.09,0.11 0.17,0.21 0.26,0.32 -0.09,-0.11 -0.16,-0.2 -0.26,-0.32"></path><path id="SvgjsPath1011" style="fill:#2b1e1e;fill-opacity:1;fill-rule:nonzero;stroke:none" d="m 1723.76,2485.28 c 0.07,0.08 0.15,0.18 0.22,0.26 -0.08,-0.09 -0.15,-0.17 -0.22,-0.26"></path><path id="SvgjsPath1010" style="fill:#3b2322;fill-opacity:1;fill-rule:nonzero;stroke:none" d="m 1724.27,2485.91 c 0.02,0.02 0.05,0.05 0.07,0.08 0.01,0.01 0.02,0.02 0.03,0.03 -0.03,-0.03 -0.07,-0.08 -0.1,-0.11"></path><path id="SvgjsPath1009" style="fill:#2b1e1e;fill-opacity:1;fill-rule:nonzero;stroke:none" d="m 1724.34,2485.99 c 0.04,0.04 0.06,0.08 0.1,0.13 -0.02,-0.03 -0.05,-0.07 -0.07,-0.1 -0.01,-0.01 -0.02,-0.02 -0.03,-0.03"></path><path id="SvgjsPath1008" style="fill:#2b1e1e;fill-opacity:1;fill-rule:nonzero;stroke:none" d="m 1724.77,2486.52 c 0.05,0.06 0.08,0.1 0.13,0.16 -0.04,-0.05 -0.08,-0.11 -0.13,-0.16"></path><path id="SvgjsPath1007" style="fill:#2b1e1e;fill-opacity:1;fill-rule:nonzero;stroke:none" d="m 1725.3,2487.16 c 0.01,0.02 0.04,0.05 0.06,0.07 -0.03,-0.02 -0.04,-0.05 -0.06,-0.07"></path><path id="SvgjsPath1006" style="fill:#a58677;fill-opacity:1;fill-rule:nonzero;stroke:none" d="m 3619.31,3243.88 c -14.08,0 -25.7,3.98 -34.32,11.64 0.03,0.04 0.05,0.05 0.08,0.09 8.64,-7.68 20.27,-11.66 34.38,-11.66 24.62,0 56.77,12.15 93.61,38.02 -36.89,-25.91 -69.09,-38.09 -93.75,-38.09"></path><path id="SvgjsPath1005" style="fill:#221b1b;fill-opacity:1;fill-rule:nonzero;stroke:none" d="m 1527.9,1681.01 v 0 c -0.05,0 -0.1,0 -0.15,0 -0.05,0 -0.09,0 -0.14,0 -48.85,0.35 -117.23,86.27 -117.23,170.1 v 0 c 59.47,225.81 163.26,449.09 310.24,630.3 v 0 c 0.16,0.2 0.31,0.38 0.48,0.59 0.07,0.08 0.13,0.16 0.2,0.24 0.09,0.12 0.19,0.24 0.28,0.36 0.06,0.07 0.13,0.15 0.19,0.22 0.1,0.13 0.19,0.25 0.3,0.37 0.07,0.09 0.12,0.16 0.19,0.24 0.1,0.13 0.19,0.23 0.29,0.36 0.06,0.07 0.12,0.15 0.18,0.22 0.1,0.13 0.21,0.25 0.31,0.38 0.07,0.08 0.14,0.17 0.2,0.25 0.1,0.12 0.17,0.21 0.26,0.32 0.09,0.11 0.17,0.21 0.26,0.32 0.07,0.09 0.14,0.17 0.22,0.26 0.09,0.12 0.19,0.24 0.29,0.37 0.05,0.06 0.12,0.14 0.17,0.21 0.11,0.13 0.23,0.27 0.33,0.4 0.05,0.05 0.09,0.11 0.13,0.16 0.13,0.16 0.27,0.32 0.4,0.48 0.02,0.02 0.03,0.05 0.06,0.07 0.14,0.18 0.28,0.35 0.43,0.54 l 0.02,0.02 c 159.6,195.07 369.63,340.77 628.22,388.62 9.31,-7.63 21.37,-12.73 36.19,-13.69 38.88,-2.49 78.78,-3.78 119.5,-3.78 379.3,0.01 824.18,111.73 1075.27,396.58 8.62,-7.66 20.24,-11.64 34.32,-11.64 24.66,0 56.86,12.18 93.75,38.09 v 0 c -19.92,-18.51 -40.39,-41.23 -60.87,-67.88 -46.28,-60.31 -99.3,-120.62 -157.65,-176.16 -132.96,-125.66 -293.69,-224.68 -466.48,-231.98 -311.99,-13.05 -546.11,-44.82 -726.89,-101.57 -0.03,-0.01 -0.08,-0.02 -0.11,-0.04 -0.2,-0.06 -0.4,-0.12 -0.6,-0.18 -0.13,-0.05 -0.26,-0.09 -0.39,-0.13 -0.17,-0.05 -0.33,-0.1 -0.5,-0.15 -0.12,-0.04 -0.24,-0.08 -0.36,-0.12 -0.11,-0.03 -0.25,-0.08 -0.36,-0.11 -0.22,-0.07 -0.41,-0.13 -0.63,-0.2 -0.09,-0.03 -0.18,-0.06 -0.27,-0.09 -0.13,-0.04 -0.27,-0.08 -0.4,-0.12 -0.2,-0.07 -0.41,-0.13 -0.61,-0.2 -0.1,-0.03 -0.19,-0.06 -0.29,-0.09 -0.23,-0.07 -0.48,-0.15 -0.71,-0.22 v 0 0 c -36.75,-11.51 -71.25,-24.13 -103.79,-37.87 v 0 c -352.31,-148.67 -469.28,-424.12 -616.27,-890.05 v 0 0 0 c 0,-67.47 -20.96,-93.78 -47.96,-93.8 v 0 c -0.01,0 -0.02,0 -0.02,0"></path><path id="SvgjsPath1004" style="fill:#ffffff;fill-opacity:1;fill-rule:nonzero;stroke:none" d="m 3320.07,1860.48 c 81.32,53.46 163.36,115.47 245.67,187.11 v 0 c -82.31,-71.64 -164.28,-133.61 -245.61,-187.08 -0.02,-0.01 -0.04,-0.02 -0.06,-0.03"></path><path id="SvgjsPath1003" style="fill:#9c632e;fill-opacity:1;fill-rule:nonzero;stroke:none" d="m 3258.07,1827.05 c 0,0 16.69,11.01 46.51,30.66 15.13,9.56 33.33,21.69 53.25,37.52 20.07,15.56 43.91,31.85 67.47,53.45 12.07,10.41 24.7,21.31 37.84,32.64 13.07,11.42 25.46,24.68 38.95,37.59 27.49,25.37 53.44,55.8 81.64,86.82 14.01,15.6 26.67,33.05 40.58,49.99 6.85,8.57 13.78,17.22 20.76,25.96 6.43,9.16 12.92,18.42 19.47,27.74 27.27,36.59 51.51,77.09 77.04,118.1 22.99,42.49 46.17,83.59 64.47,125.38 4.87,10.3 9.69,20.51 14.48,30.63 4.13,10.39 8.23,20.68 12.28,30.87 7.85,20.46 16.76,40.09 23.4,59.96 13.02,39.82 26.61,77.4 35.12,113.8 4.56,18.1 9.99,35.4 13.49,52.39 3.4,17.01 6.67,33.35 9.79,48.98 7.22,31.11 9.72,59.86 13.46,84.97 4.04,25.11 5.73,46.91 6.69,64.78 2.64,35.62 4.12,55.57 4.12,55.57 0,0 0.53,-20.02 1.46,-55.76 0.71,-18.01 0.95,-40.04 -1.06,-65.56 -1.7,-25.5 -2.06,-54.83 -7.22,-86.71 -2.16,-16.05 -4.42,-32.82 -6.77,-50.28 -2.52,-17.47 -7.01,-35.29 -10.7,-53.95 -6.74,-37.54 -18.81,-76.4 -30.69,-117.59 -6.07,-20.55 -14.5,-40.87 -21.98,-62.03 -3.9,-10.53 -7.84,-21.17 -11.81,-31.91 -4.69,-10.45 -9.41,-21 -14.17,-31.65 -18.01,-43.13 -41.39,-85.48 -65.1,-128.95 -26.26,-41.98 -51.71,-83.11 -80.45,-119.96 -6.93,-9.36 -13.8,-18.66 -20.62,-27.86 -7.4,-8.74 -14.73,-17.38 -21.99,-25.95 -14.76,-16.9 -28.31,-34.21 -43.22,-49.58 -13.25,-13.49 -26.09,-26.79 -38.82,-39.52 -82.31,-71.64 -164.35,-133.65 -245.67,-187.11 -4.52,-2.48 -8.84,-4.79 -12.95,-6.93 -31.44,-16.99 -49.05,-26.5 -49.05,-26.5"></path><path id="SvgjsPath1002" style="fill:#90521c;fill-opacity:1;fill-rule:nonzero;stroke:none" d="m 3320.13,1860.51 c 81.33,53.47 163.3,115.44 245.61,187.08 -16.13,-16.12 -32.09,-31.35 -48.48,-44.95 -14.43,-12.38 -27.71,-25.05 -41.66,-35.85 -14.02,-10.65 -27.49,-20.88 -40.38,-30.66 -25.16,-20.21 -50.44,-35.02 -71.75,-49.14 -15.68,-10.66 -30.31,-19.32 -43.34,-26.48"></path><path id="SvgjsPath1001" style="fill:#9c632e;fill-opacity:1;fill-rule:nonzero;stroke:none" d="m 2893.75,2997.79 c 0,0 13.73,3.25 37.97,8.99 24.44,5.78 59.83,14.08 103.03,25.57 85.68,23.14 206.39,56.68 314.14,135.12 53.31,39.11 97.06,85.69 125.55,134.9 28.71,49.18 43.05,100 47.63,143.33 2.08,21.72 2.13,41.62 0.69,59.06 -1.52,17.43 -4.31,32.35 -7.18,44.46 -3.17,12.01 -5.91,21.35 -8.37,27.47 -2.19,6.22 -3.36,9.53 -3.36,9.53 0,0 1.66,-3.09 4.79,-8.89 3.37,-5.76 7.46,-14.65 12.32,-26.41 4.56,-11.84 9.39,-26.7 13.1,-44.53 3.61,-17.83 5.88,-38.57 5.96,-61.65 -0.26,-46.02 -10.94,-101.7 -39.15,-156.82 -28.02,-55.24 -74.05,-107.35 -131.1,-149.02 -57.29,-41.51 -119.04,-69.25 -176.42,-87.59 -57.46,-18.49 -110.53,-28.77 -155.03,-35.95 -44.61,-6.74 -80.76,-10.76 -105.75,-13.5 -24.78,-2.6 -38.82,-4.07 -38.82,-4.07"></path><path id="SvgjsPath1000" style="fill:#7c341d;fill-opacity:1;fill-rule:nonzero;stroke:none" d="m 3186.59,2260.15 c -55.52,0 -110.07,16.54 -151.4,53.14 -70.49,62.43 -81.68,188.27 -9.45,248.68 81.74,68.36 203.11,54.2 293.7,101.55 76.44,39.96 135.94,185.41 230.6,185.41 7.33,0 14.89,-0.87 22.67,-2.74 44.04,-10.55 71.33,-58.22 72.3,-103.5 0.97,-45.28 -18.59,-88.32 -39.99,-128.24 -27.51,-51.32 -58.75,-100.65 -93.41,-147.45 -56.03,-75.67 -123.67,-146.63 -210.35,-183.41 -35.86,-15.22 -75.5,-23.44 -114.67,-23.44"></path></g></g></svg><style>@media (prefers-color-scheme: light) { :root { filter: none; } }
</style></svg>