<?xml version="1.0" standalone="no"?>
<!DOCTYPE svg PUBLIC "-//W3C//DTD SVG 20010904//EN"
 "http://www.w3.org/TR/2001/REC-SVG-20010904/DTD/svg10.dtd">
<svg version="1.0" xmlns="http://www.w3.org/2000/svg"
 width="678.000000pt" height="678.000000pt" viewBox="0 0 678.000000 678.000000"
 preserveAspectRatio="xMidYMid meet">
<metadata>
Created by potrace 1.11, written by Peter Selinger 2001-2013
</metadata>
<g transform="translate(0.000000,678.000000) scale(0.100000,-0.100000)"
fill="#000000" stroke="none">
<path d="M4235 5834 c-842 -104 -1869 -558 -2670 -1178 -182 -140 -276 -225
-455 -405 -465 -468 -708 -928 -724 -1375 -2 -50 -1 -119 3 -153 4 -35 3 -64
-1 -65 -4 -2 0 -55 8 -118 69 -530 254 -945 551 -1231 291 -280 667 -444 1183
-515 155 -21 571 -30 737 -15 1516 134 3093 1330 3428 2601 96 366 106 867 25
1240 -78 359 -243 458 -472 284 -142 -107 -245 -134 -301 -79 -38 38 -41 83
-16 198 28 131 23 213 -20 323 -98 251 -300 404 -628 474 -132 29 -472 36
-648 14z"/>
</g>
</svg>
