<?xml version="1.0" standalone="no"?>
<!DOCTYPE svg PUBLIC "-//W3C//DTD SVG 20010904//EN"
 "http://www.w3.org/TR/2001/REC-SVG-20010904/DTD/svg10.dtd">
<svg version="1.0" xmlns="http://www.w3.org/2000/svg"
 width="700.000000pt" height="700.000000pt" viewBox="0 0 700.000000 700.000000"
 preserveAspectRatio="xMidYMid meet">
<metadata>
Created by potrace 1.14, written by Peter Selinger 2001-2017
</metadata>
<g transform="translate(0.000000,700.000000) scale(0.100000,-0.100000)"
fill="#000000" stroke="none">
<path d="M4657 6154 c-1 -1 -53 -5 -116 -8 -63 -4 -117 -8 -120 -10 -3 -2 -35
-7 -71 -11 -36 -4 -67 -8 -70 -10 -3 -2 -26 -6 -50 -10 -100 -15 -310 -62
-465 -104 -95 -26 -407 -127 -450 -145 -16 -7 -46 -19 -65 -26 -19 -6 -44 -16
-55 -20 -292 -123 -398 -171 -590 -269 -612 -312 -1125 -678 -1551 -1108 -430
-432 -703 -882 -760 -1253 -3 -19 -7 -42 -9 -50 -24 -91 -24 -469 1 -630 2
-19 6 -46 8 -60 42 -285 162 -617 305 -845 66 -105 58 -94 147 -199 222 -260
507 -449 868 -575 143 -50 401 -110 541 -125 28 -3 79 -9 115 -13 131 -15 626
-7 726 11 10 2 44 7 74 11 79 10 111 14 145 22 17 3 39 7 50 8 52 7 343 74
410 95 17 5 68 21 115 36 414 127 882 352 1235 593 396 270 678 525 1011 913
151 176 382 553 464 758 12 30 28 69 36 85 39 90 123 387 138 490 7 42 13 80
21 130 14 84 20 199 20 380 0 255 -10 370 -49 575 -26 135 -97 299 -155 356
-55 54 -88 68 -161 68 -124 1 -232 -80 -434 -324 -433 -525 -866 -786 -1346
-815 -202 -12 -257 -15 -310 -20 -30 -3 -86 -8 -125 -11 -95 -8 -132 -11 -190
-18 -27 -3 -72 -8 -100 -11 -66 -7 -121 -14 -154 -19 -14 -3 -60 -10 -101 -16
-41 -6 -115 -20 -165 -30 -49 -10 -101 -21 -115 -24 -14 -2 -68 -16 -120 -30
-448 -119 -771 -311 -1039 -617 -84 -96 -111 -128 -111 -133 0 -1 -24 -43 -54
-92 -66 -109 -160 -297 -215 -426 -88 -207 -231 -621 -271 -781 -27 -105 -39
-137 -63 -165 -39 -43 -92 -26 -170 53 -64 65 -95 122 -106 192 -29 195 204
785 474 1198 103 158 212 290 371 450 256 259 451 397 710 503 86 35 237 84
299 97 11 3 70 16 130 30 94 21 235 46 400 70 22 4 81 13 130 20 50 8 108 16
130 20 72 10 328 56 405 71 41 9 90 18 109 20 19 3 37 6 41 9 4 2 21 7 38 10
82 14 174 35 307 70 519 136 842 307 993 528 161 233 167 527 16 734 -173 237
-532 386 -952 396 -57 1 -104 2 -105 1z"/>
</g>
</svg>
